<?xml version="1.0" standalone="no"?>
<!DOCTYPE svg PUBLIC "-//W3C//DTD SVG 20010904//EN"
 "http://www.w3.org/TR/2001/REC-SVG-20010904/DTD/svg10.dtd">
<svg version="1.0" xmlns="http://www.w3.org/2000/svg"
 width="1280.000000pt" height="1262.000000pt" viewBox="0 0 1280.000000 1262.000000"
 preserveAspectRatio="xMidYMid meet">
<metadata>
Created by potrace 1.15, written by Peter Selinger 2001-2017
</metadata>
<g transform="translate(0.000000,1262.000000) scale(0.100000,-0.100000)"
fill="#FFFFFF" stroke="none">
<path d="M0 12374 c0 -244 1 -255 110 -1283 61 -570 128 -1202 150 -1406 145
-1369 231 -2169 233 -2171 4 -3 921 97 925 101 3 2 0 51 -6 107 -63 588 -315
2952 -325 3048 -8 69 -13 127 -11 128 1 2 578 -558 1281 -1245 703 -686 1411
-1378 1573 -1536 162 -158 297 -292 299 -298 1 -6 -31 -54 -72 -108 -161 -209
-354 -524 -479 -781 -258 -532 -402 -1025 -474 -1630 -22 -183 -26 -740 -6
-930 149 -1438 892 -2712 2042 -3504 688 -473 1432 -747 2290 -843 189 -21
680 -24 870 -5 571 57 1075 190 1577 418 1217 553 2122 1550 2561 2824 507
1471 261 3095 -662 4375 -813 1127 -2112 1851 -3524 1965 -305 24 -741 10
-1045 -35 -825 -122 -1631 -466 -2282 -974 -71 -55 -133 -100 -136 -98 -4 1
-568 551 -1255 1222 -687 671 -1396 1364 -1576 1539 -180 176 -326 321 -325
321 1 1 742 -60 1647 -135 905 -76 1647 -136 1649 -134 5 4 83 926 79 929 -2
1 -1045 88 -2318 194 -2170 180 -2330 192 -2552 191 l-238 0 0 -246z m8400
-3719 c1547 -183 2797 -1200 3270 -2662 82 -254 131 -473 167 -748 22 -175 25
-671 5 -835 -115 -909 -481 -1686 -1086 -2308 -544 -559 -1312 -965 -2086
-1101 -402 -71 -832 -80 -1210 -25 -860 125 -1648 523 -2240 1130 -506 520
-855 1169 -1014 1884 -95 431 -114 926 -50 1360 61 421 191 825 389 1215 303
597 738 1090 1285 1452 569 377 1227 603 1900 652 168 13 504 5 670 -14z"/>
</g>
</svg>
